<svg xmlns="http://www.w3.org/2000/svg" width="1728" height="1728" viewBox="0 0 1728 1728"><path d="M1415.597 400.877l-166.272 101.568 12.097 20.524c-80.91-23.08-241.613-64.686-326.4-64.686-80.256 0-123.07 20.717-178.752 47.597-10.944 5.204-101.376 48.577-103.104 48.96l-194.305-.556L279.726 799.47l125.952 115.775c-10.637 27.744-4.396 54.835 12.48 74.304 16.185 18.834 40.28 29.28 68.928 23.788-19.22 36.48-16.762 65.855 4.607 90.432 20.66 23.79 49.69 32.563 88.704 17.875-6.912 26.246-4.436 49.747 13.824 71.04 16.492 19.2 41.03 29.396 70.27 24.192l6.913-1.344c-12.422 32.505-6.777 58.52 10.752 78.72 26.65 31.046 72.673 34.426 102.72 7.872l27.265-23.597 26.304 49.324c12.922 24.5 44.122 36.71 72 22.08 27.514-14.803 36-47.06 22.85-72.19-19.01-35.54-50.306-93.14-50.306-93.14 1.133-26.766-8.313-38.285-22.464-52.993l19.968-13.44s56.448 108.307 76.8 146.707c12.94 25.056 44.525 36.48 72 22.06 28.475-15.282 35.616-47.922 22.85-72.383l-82.753-154.56 23.423-14.804 92.16 173.568c13.9 26.342 46.176 35.827 72 22.27 28.34-15.416 35.904-47.46 22.848-72.383l-95.807-180.307 24.384-14.593s63.36 121.73 86.208 165.12c12.922 24.5 44.122 36.71 72 22.08 26.688-14.208 36.673-46.08 22.85-72.403l-63.17-119.02c46.753-27.688 76.167-69.985 110.017-121.748l84.48-53.185 26.13 41.72 179.962-93.694-211.277-341.74zm-843.84 684.48c-15.993 14.227-40.474 11.77-53.376-3.63-13.593-15.187-10.828-48.595 15.36-65.106 1.806-1.19 146.63-126.604 148.032-127.853 15.34-13.632 39.437-12.518 53.568 3.82 14.073 16.014 12.75 40.014-3.264 53.973l-160.32 138.796zm102.528 89.088c-15.802 13.996-40.09 12.02-53.568-3.668-13.057-15.168-12.864-37.23.384-51.456 2.17-2.187 117.313-101.816 119.617-103.87 15.667-13.96 39.725-12.097 53.568 3.647 14.438 16.857 12.287 40.935-3.265 54.125l-116.735 101.223zm161.28 38.4l-73.152 63.168c-15.648 13.9-39.897 12.192-53.76-3.84-14.247-16.224-12.04-40.762 3.455-53.972l73.152-63.724c13.978-11.96 36.326-13.23 52.416 2.86 12.75 10.216 17.09 38.786-2.112 55.51m478.657-391.873c-2.745 2.746-5.47 5.223-7.103 7.66-24.77 38.612-61.19 86.67-98.19 105.927-146.13-200.044-227.73-265.497-333.618-359.73L628.59 690.433c-18.434 9.197-41.627 1.306-50.88-18.048-9.294-18.988-1.48-42.067 17.663-51.264l239.23-112.127c30.337-11.137 61.825-16.34 100.8-16.34 81.39 0 273.755 53.49 354.165 75.917l116.217 198.24-91.564 54.163zM79.393 683.673l206.534-300.402 151.968 121.825-201.79 279.973L79.39 683.674zm365.26 283.796c-14.36-16.437-12-40.936 3.265-53.953L579.053 799.47c15.936-13.27 40.07-11.866 53.76 4.03 14.208 16.32 12.672 40.13-3.264 54.145L498.22 971.31c-13.94 12.69-39.09 12.96-53.568-3.84z"/></svg>